<mxfile host="Electron" modified="2023-05-06T12:15:07.105Z" agent="Mozilla/5.0 (Windows NT 10.0; Win64; x64) AppleWebKit/537.36 (KHTML, like Gecko) draw.io/21.2.8 Chrome/112.0.5615.165 Electron/24.2.0 Safari/537.36" etag="GgXbyPLoAudy13xP1TNh" version="21.2.8" type="device">
  <diagram name="Page-1" id="Sow2kFedB-dUOyFO8EWt">
    <mxGraphModel dx="918" dy="584" grid="1" gridSize="10" guides="1" tooltips="1" connect="1" arrows="1" fold="1" page="1" pageScale="1" pageWidth="827" pageHeight="1169" math="0" shadow="0">
      <root>
        <mxCell id="0" />
        <mxCell id="1" parent="0" />
        <mxCell id="vq6xDmSKrg0MlbNKNGMm-3" style="edgeStyle=orthogonalEdgeStyle;rounded=0;orthogonalLoop=1;jettySize=auto;html=1;exitX=0.5;exitY=1;exitDx=0;exitDy=0;entryX=0.5;entryY=0;entryDx=0;entryDy=0;" edge="1" parent="1" source="vq6xDmSKrg0MlbNKNGMm-1" target="vq6xDmSKrg0MlbNKNGMm-2">
          <mxGeometry relative="1" as="geometry" />
        </mxCell>
        <mxCell id="vq6xDmSKrg0MlbNKNGMm-1" value="&lt;font style=&quot;font-size: 16px;&quot;&gt;NewArray&lt;/font&gt;" style="rounded=1;whiteSpace=wrap;html=1;" vertex="1" parent="1">
          <mxGeometry x="470" y="40" width="120" height="60" as="geometry" />
        </mxCell>
        <mxCell id="vq6xDmSKrg0MlbNKNGMm-5" style="edgeStyle=orthogonalEdgeStyle;rounded=0;orthogonalLoop=1;jettySize=auto;html=1;exitX=0.5;exitY=1;exitDx=0;exitDy=0;entryX=0.5;entryY=0;entryDx=0;entryDy=0;" edge="1" parent="1" source="vq6xDmSKrg0MlbNKNGMm-2" target="vq6xDmSKrg0MlbNKNGMm-4">
          <mxGeometry relative="1" as="geometry" />
        </mxCell>
        <mxCell id="vq6xDmSKrg0MlbNKNGMm-2" value="&lt;font style=&quot;font-size: 16px;&quot;&gt;string[] array&lt;br&gt;string[] newArray = new string[array.Length]&lt;br&gt;int task = 0&lt;/font&gt;" style="shape=parallelogram;perimeter=parallelogramPerimeter;whiteSpace=wrap;html=1;fixedSize=1;" vertex="1" parent="1">
          <mxGeometry x="348.75" y="140" width="362.5" height="80" as="geometry" />
        </mxCell>
        <mxCell id="vq6xDmSKrg0MlbNKNGMm-7" value="Yes" style="edgeStyle=orthogonalEdgeStyle;rounded=0;orthogonalLoop=1;jettySize=auto;html=1;exitX=0.5;exitY=1;exitDx=0;exitDy=0;" edge="1" parent="1" source="vq6xDmSKrg0MlbNKNGMm-4" target="vq6xDmSKrg0MlbNKNGMm-6">
          <mxGeometry relative="1" as="geometry" />
        </mxCell>
        <mxCell id="vq6xDmSKrg0MlbNKNGMm-15" value="No" style="edgeStyle=orthogonalEdgeStyle;rounded=0;orthogonalLoop=1;jettySize=auto;html=1;exitX=1;exitY=0;exitDx=0;exitDy=0;entryX=1;entryY=0.5;entryDx=0;entryDy=0;" edge="1" parent="1" source="vq6xDmSKrg0MlbNKNGMm-4" target="vq6xDmSKrg0MlbNKNGMm-14">
          <mxGeometry relative="1" as="geometry">
            <Array as="points">
              <mxPoint x="740" y="280" />
              <mxPoint x="740" y="630" />
            </Array>
          </mxGeometry>
        </mxCell>
        <mxCell id="vq6xDmSKrg0MlbNKNGMm-4" value="&lt;font style=&quot;font-size: 16px;&quot;&gt;for (int i =0; i &amp;lt; array,Length; i++)&lt;/font&gt;" style="rhombus;whiteSpace=wrap;html=1;" vertex="1" parent="1">
          <mxGeometry x="436.25" y="250" width="187.5" height="120" as="geometry" />
        </mxCell>
        <mxCell id="vq6xDmSKrg0MlbNKNGMm-10" value="Yes" style="edgeStyle=orthogonalEdgeStyle;rounded=0;orthogonalLoop=1;jettySize=auto;html=1;exitX=0;exitY=0.5;exitDx=0;exitDy=0;" edge="1" parent="1" source="vq6xDmSKrg0MlbNKNGMm-6" target="vq6xDmSKrg0MlbNKNGMm-8">
          <mxGeometry relative="1" as="geometry" />
        </mxCell>
        <mxCell id="vq6xDmSKrg0MlbNKNGMm-12" value="No" style="edgeStyle=orthogonalEdgeStyle;rounded=0;orthogonalLoop=1;jettySize=auto;html=1;exitX=1;exitY=0.5;exitDx=0;exitDy=0;entryX=1;entryY=0.5;entryDx=0;entryDy=0;" edge="1" parent="1" source="vq6xDmSKrg0MlbNKNGMm-6" target="vq6xDmSKrg0MlbNKNGMm-4">
          <mxGeometry relative="1" as="geometry">
            <Array as="points">
              <mxPoint x="660" y="480" />
              <mxPoint x="660" y="310" />
            </Array>
          </mxGeometry>
        </mxCell>
        <mxCell id="vq6xDmSKrg0MlbNKNGMm-6" value="&lt;font style=&quot;font-size: 16px;&quot;&gt;if (array.Length &amp;lt;= 3)&lt;/font&gt;" style="rhombus;whiteSpace=wrap;html=1;" vertex="1" parent="1">
          <mxGeometry x="436.25" y="430" width="187.5" height="100" as="geometry" />
        </mxCell>
        <mxCell id="vq6xDmSKrg0MlbNKNGMm-13" style="edgeStyle=orthogonalEdgeStyle;rounded=0;orthogonalLoop=1;jettySize=auto;html=1;exitX=0.5;exitY=0;exitDx=0;exitDy=0;entryX=0;entryY=0.5;entryDx=0;entryDy=0;" edge="1" parent="1" source="vq6xDmSKrg0MlbNKNGMm-8" target="vq6xDmSKrg0MlbNKNGMm-4">
          <mxGeometry relative="1" as="geometry" />
        </mxCell>
        <mxCell id="vq6xDmSKrg0MlbNKNGMm-8" value="&lt;font style=&quot;font-size: 16px;&quot;&gt;newArray[temp] = array[i];&lt;br&gt;temp++;&lt;/font&gt;" style="rounded=0;whiteSpace=wrap;html=1;" vertex="1" parent="1">
          <mxGeometry x="120" y="442.5" width="200" height="75" as="geometry" />
        </mxCell>
        <mxCell id="vq6xDmSKrg0MlbNKNGMm-14" value="&lt;font style=&quot;font-size: 16px;&quot;&gt;return newArray&lt;/font&gt;" style="rounded=1;whiteSpace=wrap;html=1;" vertex="1" parent="1">
          <mxGeometry x="467.5" y="600" width="125" height="60" as="geometry" />
        </mxCell>
      </root>
    </mxGraphModel>
  </diagram>
</mxfile>
